<mxfile host="Electron" agent="Mozilla/5.0 (Windows NT 10.0; Win64; x64) AppleWebKit/537.36 (KHTML, like Gecko) draw.io/25.0.1 Chrome/128.0.6613.186 Electron/32.2.6 Safari/537.36" version="25.0.1">
  <diagram id="C5RBs43oDa-KdzZeNtuy" name="Page-1">
    <mxGraphModel dx="1219" dy="722" grid="1" gridSize="10" guides="1" tooltips="1" connect="1" arrows="1" fold="1" page="1" pageScale="1" pageWidth="827" pageHeight="1169" math="0" shadow="0">
      <root>
        <mxCell id="WIyWlLk6GJQsqaUBKTNV-0" />
        <mxCell id="WIyWlLk6GJQsqaUBKTNV-1" parent="WIyWlLk6GJQsqaUBKTNV-0" />
        <mxCell id="WIyWlLk6GJQsqaUBKTNV-2" value="" style="rounded=0;html=1;jettySize=auto;orthogonalLoop=1;fontSize=11;endArrow=block;endFill=0;endSize=8;strokeWidth=1;shadow=0;labelBackgroundColor=none;edgeStyle=orthogonalEdgeStyle;" parent="WIyWlLk6GJQsqaUBKTNV-1" edge="1">
          <mxGeometry relative="1" as="geometry">
            <mxPoint x="220" y="120" as="sourcePoint" />
            <mxPoint x="220" y="170" as="targetPoint" />
          </mxGeometry>
        </mxCell>
        <mxCell id="9Jo7X88bD5jxgYEwtY3Z-0" value="star&amp;nbsp;" style="ellipse;whiteSpace=wrap;html=1;" vertex="1" parent="WIyWlLk6GJQsqaUBKTNV-1">
          <mxGeometry x="160" y="60" width="120" height="60" as="geometry" />
        </mxCell>
        <mxCell id="9Jo7X88bD5jxgYEwtY3Z-3" value="" style="edgeStyle=orthogonalEdgeStyle;rounded=0;orthogonalLoop=1;jettySize=auto;html=1;" edge="1" parent="WIyWlLk6GJQsqaUBKTNV-1" source="9Jo7X88bD5jxgYEwtY3Z-1" target="9Jo7X88bD5jxgYEwtY3Z-2">
          <mxGeometry relative="1" as="geometry" />
        </mxCell>
        <mxCell id="9Jo7X88bD5jxgYEwtY3Z-1" value="n" style="shape=parallelogram;perimeter=parallelogramPerimeter;whiteSpace=wrap;html=1;fixedSize=1;" vertex="1" parent="WIyWlLk6GJQsqaUBKTNV-1">
          <mxGeometry x="160" y="170" width="120" height="60" as="geometry" />
        </mxCell>
        <mxCell id="9Jo7X88bD5jxgYEwtY3Z-5" value="" style="edgeStyle=orthogonalEdgeStyle;rounded=0;orthogonalLoop=1;jettySize=auto;html=1;" edge="1" parent="WIyWlLk6GJQsqaUBKTNV-1" source="9Jo7X88bD5jxgYEwtY3Z-2" target="9Jo7X88bD5jxgYEwtY3Z-4">
          <mxGeometry relative="1" as="geometry" />
        </mxCell>
        <mxCell id="9Jo7X88bD5jxgYEwtY3Z-2" value="i=1" style="rounded=1;whiteSpace=wrap;html=1;" vertex="1" parent="WIyWlLk6GJQsqaUBKTNV-1">
          <mxGeometry x="160" y="290" width="120" height="60" as="geometry" />
        </mxCell>
        <mxCell id="9Jo7X88bD5jxgYEwtY3Z-7" value="" style="edgeStyle=orthogonalEdgeStyle;rounded=0;orthogonalLoop=1;jettySize=auto;html=1;" edge="1" parent="WIyWlLk6GJQsqaUBKTNV-1" source="9Jo7X88bD5jxgYEwtY3Z-4" target="9Jo7X88bD5jxgYEwtY3Z-6">
          <mxGeometry relative="1" as="geometry" />
        </mxCell>
        <mxCell id="9Jo7X88bD5jxgYEwtY3Z-22" value="" style="edgeStyle=orthogonalEdgeStyle;rounded=0;orthogonalLoop=1;jettySize=auto;html=1;" edge="1" parent="WIyWlLk6GJQsqaUBKTNV-1" source="9Jo7X88bD5jxgYEwtY3Z-4" target="9Jo7X88bD5jxgYEwtY3Z-21">
          <mxGeometry relative="1" as="geometry" />
        </mxCell>
        <mxCell id="9Jo7X88bD5jxgYEwtY3Z-4" value="i&amp;lt;=n" style="rhombus;whiteSpace=wrap;html=1;rounded=1;" vertex="1" parent="WIyWlLk6GJQsqaUBKTNV-1">
          <mxGeometry x="150" y="420" width="140" height="60" as="geometry" />
        </mxCell>
        <mxCell id="9Jo7X88bD5jxgYEwtY3Z-9" value="" style="edgeStyle=orthogonalEdgeStyle;rounded=0;orthogonalLoop=1;jettySize=auto;html=1;" edge="1" parent="WIyWlLk6GJQsqaUBKTNV-1" source="9Jo7X88bD5jxgYEwtY3Z-6" target="9Jo7X88bD5jxgYEwtY3Z-8">
          <mxGeometry relative="1" as="geometry" />
        </mxCell>
        <mxCell id="9Jo7X88bD5jxgYEwtY3Z-11" value="" style="edgeStyle=orthogonalEdgeStyle;rounded=0;orthogonalLoop=1;jettySize=auto;html=1;" edge="1" parent="WIyWlLk6GJQsqaUBKTNV-1" source="9Jo7X88bD5jxgYEwtY3Z-6" target="9Jo7X88bD5jxgYEwtY3Z-10">
          <mxGeometry relative="1" as="geometry" />
        </mxCell>
        <mxCell id="9Jo7X88bD5jxgYEwtY3Z-6" value="n%i==0" style="rhombus;whiteSpace=wrap;html=1;rounded=1;" vertex="1" parent="WIyWlLk6GJQsqaUBKTNV-1">
          <mxGeometry x="150" y="525" width="140" height="60" as="geometry" />
        </mxCell>
        <mxCell id="9Jo7X88bD5jxgYEwtY3Z-18" value="" style="edgeStyle=orthogonalEdgeStyle;rounded=0;orthogonalLoop=1;jettySize=auto;html=1;" edge="1" parent="WIyWlLk6GJQsqaUBKTNV-1" source="9Jo7X88bD5jxgYEwtY3Z-8" target="9Jo7X88bD5jxgYEwtY3Z-17">
          <mxGeometry relative="1" as="geometry" />
        </mxCell>
        <mxCell id="9Jo7X88bD5jxgYEwtY3Z-8" value="printf i" style="shape=parallelogram;perimeter=parallelogramPerimeter;whiteSpace=wrap;html=1;fixedSize=1;rounded=1;" vertex="1" parent="WIyWlLk6GJQsqaUBKTNV-1">
          <mxGeometry x="380" y="525" width="120" height="60" as="geometry" />
        </mxCell>
        <mxCell id="9Jo7X88bD5jxgYEwtY3Z-13" value="" style="edgeStyle=orthogonalEdgeStyle;rounded=0;orthogonalLoop=1;jettySize=auto;html=1;" edge="1" parent="WIyWlLk6GJQsqaUBKTNV-1" source="9Jo7X88bD5jxgYEwtY3Z-10" target="9Jo7X88bD5jxgYEwtY3Z-12">
          <mxGeometry relative="1" as="geometry" />
        </mxCell>
        <mxCell id="9Jo7X88bD5jxgYEwtY3Z-10" value="i=i+1" style="whiteSpace=wrap;html=1;rounded=1;" vertex="1" parent="WIyWlLk6GJQsqaUBKTNV-1">
          <mxGeometry x="160" y="665" width="120" height="60" as="geometry" />
        </mxCell>
        <mxCell id="9Jo7X88bD5jxgYEwtY3Z-15" value="" style="edgeStyle=orthogonalEdgeStyle;rounded=0;orthogonalLoop=1;jettySize=auto;html=1;" edge="1" parent="WIyWlLk6GJQsqaUBKTNV-1" source="9Jo7X88bD5jxgYEwtY3Z-12" target="9Jo7X88bD5jxgYEwtY3Z-14">
          <mxGeometry relative="1" as="geometry" />
        </mxCell>
        <mxCell id="9Jo7X88bD5jxgYEwtY3Z-12" value="" style="shape=waypoint;sketch=0;size=6;pointerEvents=1;points=[];fillColor=default;resizable=0;rotatable=0;perimeter=centerPerimeter;snapToPoint=1;rounded=1;" vertex="1" parent="WIyWlLk6GJQsqaUBKTNV-1">
          <mxGeometry x="90" y="685" width="20" height="20" as="geometry" />
        </mxCell>
        <mxCell id="9Jo7X88bD5jxgYEwtY3Z-16" value="" style="edgeStyle=orthogonalEdgeStyle;rounded=0;orthogonalLoop=1;jettySize=auto;html=1;" edge="1" parent="WIyWlLk6GJQsqaUBKTNV-1" source="9Jo7X88bD5jxgYEwtY3Z-14" target="9Jo7X88bD5jxgYEwtY3Z-4">
          <mxGeometry relative="1" as="geometry" />
        </mxCell>
        <mxCell id="9Jo7X88bD5jxgYEwtY3Z-14" value="" style="shape=waypoint;sketch=0;size=6;pointerEvents=1;points=[];fillColor=default;resizable=0;rotatable=0;perimeter=centerPerimeter;snapToPoint=1;rounded=1;" vertex="1" parent="WIyWlLk6GJQsqaUBKTNV-1">
          <mxGeometry x="90" y="440" width="20" height="20" as="geometry" />
        </mxCell>
        <mxCell id="9Jo7X88bD5jxgYEwtY3Z-20" value="" style="edgeStyle=orthogonalEdgeStyle;rounded=0;orthogonalLoop=1;jettySize=auto;html=1;" edge="1" parent="WIyWlLk6GJQsqaUBKTNV-1" source="9Jo7X88bD5jxgYEwtY3Z-17" target="9Jo7X88bD5jxgYEwtY3Z-19">
          <mxGeometry relative="1" as="geometry" />
        </mxCell>
        <mxCell id="9Jo7X88bD5jxgYEwtY3Z-17" value="" style="shape=waypoint;sketch=0;size=6;pointerEvents=1;points=[];fillColor=default;resizable=0;rotatable=0;perimeter=centerPerimeter;snapToPoint=1;rounded=1;" vertex="1" parent="WIyWlLk6GJQsqaUBKTNV-1">
          <mxGeometry x="430" y="685" width="20" height="20" as="geometry" />
        </mxCell>
        <mxCell id="9Jo7X88bD5jxgYEwtY3Z-19" value="" style="shape=waypoint;sketch=0;size=6;pointerEvents=1;points=[];fillColor=default;resizable=0;rotatable=0;perimeter=centerPerimeter;snapToPoint=1;rounded=1;" vertex="1" parent="WIyWlLk6GJQsqaUBKTNV-1">
          <mxGeometry x="270" y="685" width="20" height="20" as="geometry" />
        </mxCell>
        <mxCell id="9Jo7X88bD5jxgYEwtY3Z-21" value="end&amp;nbsp;" style="ellipse;whiteSpace=wrap;html=1;rounded=1;" vertex="1" parent="WIyWlLk6GJQsqaUBKTNV-1">
          <mxGeometry x="400" y="410" width="80" height="80" as="geometry" />
        </mxCell>
        <mxCell id="9Jo7X88bD5jxgYEwtY3Z-23" value="yes" style="text;html=1;align=center;verticalAlign=middle;resizable=0;points=[];autosize=1;strokeColor=none;fillColor=none;" vertex="1" parent="WIyWlLk6GJQsqaUBKTNV-1">
          <mxGeometry x="210" y="478" width="40" height="30" as="geometry" />
        </mxCell>
        <mxCell id="9Jo7X88bD5jxgYEwtY3Z-24" value="no" style="text;html=1;align=center;verticalAlign=middle;resizable=0;points=[];autosize=1;strokeColor=none;fillColor=none;" vertex="1" parent="WIyWlLk6GJQsqaUBKTNV-1">
          <mxGeometry x="310" y="418" width="40" height="30" as="geometry" />
        </mxCell>
        <mxCell id="9Jo7X88bD5jxgYEwtY3Z-25" value="no" style="text;html=1;align=center;verticalAlign=middle;resizable=0;points=[];autosize=1;strokeColor=none;fillColor=none;" vertex="1" parent="WIyWlLk6GJQsqaUBKTNV-1">
          <mxGeometry x="210" y="608" width="40" height="30" as="geometry" />
        </mxCell>
        <mxCell id="9Jo7X88bD5jxgYEwtY3Z-26" value="yes" style="text;html=1;align=center;verticalAlign=middle;resizable=0;points=[];autosize=1;strokeColor=none;fillColor=none;" vertex="1" parent="WIyWlLk6GJQsqaUBKTNV-1">
          <mxGeometry x="320" y="528" width="40" height="30" as="geometry" />
        </mxCell>
      </root>
    </mxGraphModel>
  </diagram>
</mxfile>
